<svg width="1200" height="320" viewBox="0 0 1200 320" xmlns="http://www.w3.org/2000/svg" xmlns:xlink="http://www.w3.org/1999/xlink" role="img">
  <title>Aminul Islam — GitHub Profile Banner</title>
  <desc>Modern GitHub banner for Md Aminul Islam, Front-End Engineer</desc>
  <defs>
    <linearGradient id="topBot" x1="0%" y1="0%" x2="100%" y2="0%">
      <stop offset="0%" stop-color="#0d1117" stop-opacity="0"/>
      <stop offset="25%" stop-color="#22c55e"/>
      <stop offset="75%" stop-color="#3b82f6"/>
      <stop offset="100%" stop-color="#0d1117" stop-opacity="0"/>
    </linearGradient>
    <!-- Seamless photo fade: fades to the right AND bottom into the dark bg -->
    <linearGradient id="fadeR" x1="0%" y1="0%" x2="100%" y2="0%">
      <stop offset="40%" stop-color="#0d1117" stop-opacity="0"/>
      <stop offset="100%" stop-color="#0d1117" stop-opacity="1"/>
    </linearGradient>
    <linearGradient id="fadeB" x1="0%" y1="0%" x2="0%" y2="100%">
      <stop offset="55%" stop-color="#0d1117" stop-opacity="0"/>
      <stop offset="100%" stop-color="#0d1117" stop-opacity="1"/>
    </linearGradient>
    <radialGradient id="glow1" cx="50%" cy="50%" r="50%">
      <stop offset="0%" stop-color="#22c55e" stop-opacity="0.07"/>
      <stop offset="100%" stop-color="#22c55e" stop-opacity="0"/>
    </radialGradient>
    <radialGradient id="glow2" cx="50%" cy="50%" r="50%">
      <stop offset="0%" stop-color="#3b82f6" stop-opacity="0.06"/>
      <stop offset="100%" stop-color="#3b82f6" stop-opacity="0"/>
    </radialGradient>
    <clipPath id="photoClip">
      <rect x="0" y="0" width="300" height="320"/>
    </clipPath>
    <clipPath id="all">
      <rect width="1200" height="320"/>
    </clipPath>
  </defs>

  <g clip-path="url(#all)">

    <!-- Base background -->
    <rect width="1200" height="320" fill="#0d1117"/>

    <!-- Subtle ambient glow -->
    <ellipse cx="400" cy="160" rx="300" ry="240" fill="url(#glow1)"/>
    <ellipse cx="900" cy="160" rx="350" ry="260" fill="url(#glow2)"/>

    <!-- ── PHOTO: full-bleed, seamlessly faded ── -->
    <image href="https://avatars.githubusercontent.com/u/56115259?v=4"
           x="0" y="0" width="300" height="320"
           preserveAspectRatio="xMidYMin slice"
           clip-path="url(#photoClip)" opacity="0.93"/>
    <!-- fade right — wide, gentle -->
    <rect x="0" y="0" width="300" height="320" fill="url(#fadeR)"/>
    <!-- fade bottom — natural foot blend -->
    <rect x="0" y="0" width="300" height="320" fill="url(#fadeB)"/>

    <!-- ── TOP / BOTTOM ACCENT LINES ── -->
    <rect x="0" y="0"   width="1200" height="2.5" fill="url(#topBot)"/>
    <rect x="0" y="317.5" width="1200" height="2.5" fill="url(#topBot)"/>

    <!-- ── CENTER: NAME + BULLETS ── -->

    <!-- Eyebrow label -->
    <rect x="295" y="68" width="20" height="1.5" rx="1" fill="#22c55e"/>
    <text x="322" y="74" font-family="'Courier New',Courier,monospace"
          font-size="10" font-weight="500" fill="#22c55e" letter-spacing="2.5">FRONT-END ENGINEER · @ROXNOR · @WPMETCOM</text>

    <!-- HTML tag name -->
    <text x="292" y="143"
          font-family="'Segoe UI',Arial,sans-serif"
          font-size="45" font-weight="800" letter-spacing="-1">
      <tspan fill="#22c55e">&lt;</tspan><tspan fill="#f0f6ff">Aminul Islam</tspan><tspan fill="#3b82f6">/</tspan><tspan fill="#22c55e">&gt;</tspan>
    </text>

    <!-- Sub line -->
    <text x="294" y="165" font-family="'Courier New',Courier,monospace"
          font-size="10.5" fill="#3d5068" letter-spacing="1">theaminulai · theaminul.com · Bangladesh 🇧🇩</text>

    <!-- Bullet 1 -->
    <text x="297" y="202" font-size="16">💻</text>
    <text x="322" y="202" font-family="'Segoe UI',Arial,sans-serif" font-size="15" fill="#94a3b8">Passion for </text>
    <text x="427" y="202" font-family="'Segoe UI',Arial,sans-serif" font-size="15" fill="#22c55e" font-weight="600">Programming</text>

    <!-- Bullet 2 -->
    <text x="297" y="228" font-size="16">📚</text>
    <text x="322" y="228" font-family="'Segoe UI',Arial,sans-serif" font-size="15" fill="#94a3b8">Lifelong Learner</text>

    <!-- Bullet 3 -->
    <text x="297" y="254" font-size="16">💼</text>
    <text x="322" y="254" font-family="'Segoe UI',Arial,sans-serif" font-size="15" fill="#94a3b8">Career Tips</text>

    <!-- Bullet 4 -->
    <text x="297" y="280" font-size="16">🎨</text>
    <text x="322" y="280" font-family="'Segoe UI',Arial,sans-serif" font-size="15" fill="#94a3b8">The art of code</text>

    <!-- ── CODE EDITOR ── -->
    <rect x="700" y="38" width="194" height="244" rx="9" fill="#161b22" stroke="#21262d" stroke-width="1"/>
    <!-- Title bar -->
    <rect x="700" y="38" width="194" height="27" rx="9" fill="#0d1117"/>
    <rect x="700" y="55" width="194" height="10" fill="#0d1117"/>
    <rect x="700" y="65" width="194" height="1" fill="#21262d"/>
    <circle cx="718" cy="52" r="4" fill="#ff5f57"/>
    <circle cx="732" cy="52" r="4" fill="#febc2e"/>
    <circle cx="746" cy="52" r="4" fill="#28c840"/>
    <text x="758" y="56" font-family="'Courier New',monospace" font-size="8.5" fill="#3d5068">index.js</text>

    <!-- Code body -->
    <text x="712" y="83"  font-family="'Courier New',monospace" font-size="9.5" fill="#2d4a6b">1</text>
    <text x="724" y="83"  font-family="'Courier New',monospace" font-size="9.5" fill="#c792ea">const</text>
    <text x="756" y="83"  font-family="'Courier New',monospace" font-size="9.5" fill="#82aaff"> dev</text>
    <text x="775" y="83"  font-family="'Courier New',monospace" font-size="9.5" fill="#89ddff"> =</text>
    <text x="786" y="83"  font-family="'Courier New',monospace" font-size="9.5" fill="#cdd3de"> {</text>

    <text x="712" y="100" font-family="'Courier New',monospace" font-size="9.5" fill="#2d4a6b">2</text>
    <text x="724" y="100" font-family="'Courier New',monospace" font-size="9.5" fill="#82aaff">  name</text>
    <text x="754" y="100" font-family="'Courier New',monospace" font-size="9.5" fill="#89ddff">:</text>
    <text x="760" y="100" font-family="'Courier New',monospace" font-size="9.5" fill="#c3e88d"> "Aminul"</text>
    <text x="808" y="100" font-family="'Courier New',monospace" font-size="9.5" fill="#cdd3de">,</text>

    <text x="712" y="117" font-family="'Courier New',monospace" font-size="9.5" fill="#2d4a6b">3</text>
    <text x="724" y="117" font-family="'Courier New',monospace" font-size="9.5" fill="#82aaff">  role</text>
    <text x="754" y="117" font-family="'Courier New',monospace" font-size="9.5" fill="#89ddff">:</text>
    <text x="760" y="117" font-family="'Courier New',monospace" font-size="9.5" fill="#c3e88d"> "Frontend"</text>
    <text x="818" y="117" font-family="'Courier New',monospace" font-size="9.5" fill="#cdd3de">,</text>

    <text x="712" y="134" font-family="'Courier New',monospace" font-size="9.5" fill="#2d4a6b">4</text>
    <text x="724" y="134" font-family="'Courier New',monospace" font-size="9.5" fill="#82aaff">  stack</text>
    <text x="758" y="134" font-family="'Courier New',monospace" font-size="9.5" fill="#89ddff">:</text>
    <text x="764" y="134" font-family="'Courier New',monospace" font-size="9.5" fill="#cdd3de"> [</text>

    <text x="712" y="151" font-family="'Courier New',monospace" font-size="9.5" fill="#2d4a6b">5</text>
    <text x="724" y="151" font-family="'Courier New',monospace" font-size="9.5" fill="#c3e88d">    "React"</text>
    <text x="778" y="151" font-family="'Courier New',monospace" font-size="9.5" fill="#cdd3de">, </text>
    <text x="787" y="151" font-family="'Courier New',monospace" font-size="9.5" fill="#c3e88d">"WP"</text>

    <text x="712" y="168" font-family="'Courier New',monospace" font-size="9.5" fill="#2d4a6b">6</text>
    <text x="724" y="168" font-family="'Courier New',monospace" font-size="9.5" fill="#cdd3de">  ],</text>

    <text x="712" y="185" font-family="'Courier New',monospace" font-size="9.5" fill="#2d4a6b">7</text>
    <text x="724" y="185" font-family="'Courier New',monospace" font-size="9.5" fill="#82aaff">  open</text>
    <text x="754" y="185" font-family="'Courier New',monospace" font-size="9.5" fill="#89ddff">:</text>
    <text x="760" y="185" font-family="'Courier New',monospace" font-size="9.5" fill="#f78c6c"> true</text>

    <text x="712" y="202" font-family="'Courier New',monospace" font-size="9.5" fill="#2d4a6b">8</text>
    <text x="724" y="202" font-family="'Courier New',monospace" font-size="9.5" fill="#cdd3de">}</text>
    <rect x="736" y="192" width="6" height="12" rx="1" fill="#22c55e" opacity="0.9"/>

    <text x="712" y="222" font-family="'Courier New',monospace" font-size="9.5" fill="#4a5568">// WordPress ♥ React</text>
    <text x="712" y="239" font-family="'Courier New',monospace" font-size="9.5" fill="#4a5568">// Always dreaming 🚀</text>
    <text x="712" y="256" font-family="'Courier New',monospace" font-size="9.5" fill="#4a5568">// theaminul.com</text>

    <!-- ── WIREFRAME / SKETCH ── -->
    <!-- Phone body -->
    <rect x="916" y="30" width="90" height="170" rx="13" fill="#111827" stroke="#2a3a4a" stroke-width="1.5"/>
    <rect x="937" y="30" width="48" height="8" rx="4" fill="#2a3a4a" opacity="0.55"/>
    <!-- Avatar circle in phone -->
    <circle cx="961" cy="62" r="14" fill="#1e3a5f" stroke="#2d3a4a" stroke-width="1" opacity="0.7"/>
    <circle cx="961" cy="58" r="5" fill="#2d4a6b" opacity="0.7"/>
    <ellipse cx="961" cy="72" rx="8" ry="5" fill="#2d4a6b" opacity="0.5"/>
    <!-- Screen text lines -->
    <rect x="926" y="84" width="70" height="3.5" rx="1.5" fill="#3d5068" opacity="0.5"/>
    <rect x="934" y="91" width="54" height="3" rx="1.5" fill="#2d4a6b" opacity="0.4"/>
    <!-- Card -->
    <rect x="926" y="102" width="70" height="22" rx="4" fill="#1e2d3d" stroke="#2d3a4a" stroke-width="0.8" opacity="0.7"/>
    <rect x="930" y="106" width="30" height="3.5" rx="1.5" fill="#3d5068" opacity="0.55"/>
    <rect x="930" y="113" width="20" height="3" rx="1.5" fill="#2d4a6b" opacity="0.45"/>
    <!-- CTA -->
    <rect x="926" y="132" width="70" height="13" rx="4" fill="#22c55e" opacity="0.13" stroke="#22c55e" stroke-width="0.8"/>
    <rect x="941" y="136" width="40" height="3" rx="1.5" fill="#22c55e" opacity="0.4"/>
    <!-- Nav -->
    <rect x="926" y="154" width="70" height="13" rx="4" fill="#1a2332" opacity="0.6"/>
    <rect x="930" y="157" width="14" height="6" rx="2" fill="#2d3a4a" opacity="0.5"/>
    <rect x="948" y="157" width="14" height="6" rx="2" fill="#22c55e" opacity="0.32"/>
    <rect x="966" y="157" width="14" height="6" rx="2" fill="#2d3a4a" opacity="0.5"/>
    <rect x="942" y="170" width="38" height="3" rx="1.5" fill="#2d3a4a" opacity="0.3"/>

    <!-- Arrow -->
    <line x1="1010" y1="115" x2="1026" y2="115" stroke="#2d3a4a" stroke-width="1.5" stroke-dasharray="3,2"/>
    <polygon points="1026,111 1034,115 1026,119" fill="#2d3a4a" opacity="0.7"/>

    <!-- Dashboard card -->
    <rect x="1038" y="62" width="86" height="72" rx="7" fill="#111827" stroke="#2a3a4a" stroke-width="1.2"/>
    <rect x="1046" y="70" width="70" height="10" rx="3" fill="#1e3a5f" opacity="0.6"/>
    <rect x="1046" y="85" width="28" height="28" rx="3" fill="#1e3a5f" stroke="#2d3a4a" stroke-width="0.8" opacity="0.55"/>
    <rect x="1078" y="85" width="30" height="10" rx="2.5" fill="#2d3a4a" opacity="0.4"/>
    <rect x="1078" y="99" width="20" height="7" rx="2" fill="#22c55e" opacity="0.2" stroke="#22c55e" stroke-width="0.7"/>
    <rect x="1082" y="102" width="12" height="2.5" rx="1" fill="#22c55e" opacity="0.45"/>
    <rect x="1046" y="118" width="70" height="9" rx="3" fill="#3b82f6" opacity="0.1" stroke="#3b82f6" stroke-width="0.7"/>
    <rect x="1058" y="121" width="36" height="3" rx="1.5" fill="#3b82f6" opacity="0.38"/>

    <!-- Vertical connector -->
    <line x1="1081" y1="134" x2="1081" y2="160" stroke="#2d3a4a" stroke-width="1" stroke-dasharray="3,2" opacity="0.5"/>

    <!-- Second card -->
    <rect x="1038" y="160" width="86" height="56" rx="7" fill="#111827" stroke="#2a3a4a" stroke-width="1.2"/>
    <rect x="1046" y="167" width="70" height="4" rx="2" fill="#2d3a4a" opacity="0.4"/>
    <rect x="1046" y="175" width="48" height="3.5" rx="1.5" fill="#1e3a5f" opacity="0.35"/>
    <rect x="1046" y="183" width="70" height="22" rx="4" fill="#22c55e" opacity="0.11" stroke="#22c55e" stroke-width="0.8"/>
    <rect x="1054" y="191" width="32" height="3.5" rx="1.5" fill="#22c55e" opacity="0.42"/>

    <!-- Floating labels -->
    <rect x="916" y="216" width="46" height="17" rx="4.5" fill="#0d1117" stroke="#22c55e" stroke-width="0.9"/>
    <text x="939" y="228" font-family="'Courier New',monospace" font-size="7.5" fill="#22c55e" text-anchor="middle">UI / UX</text>

    <rect x="1038" y="228" width="86" height="17" rx="4.5" fill="#0d1117" stroke="#3b82f6" stroke-width="0.9"/>
    <text x="1081" y="240" font-family="'Courier New',monospace" font-size="7.5" fill="#3b82f6" text-anchor="middle">React · WordPress</text>

  </g>
</svg>
